<?xml version="1.0" encoding="iso-8859-1"?>
<!-- Uploaded to: SVG Repo, www.svgrepo.com, Generator: SVG Repo Mixer Tools -->
<svg height="800px" width="800px" version="1.1" id="Layer_1" xmlns="http://www.w3.org/2000/svg" xmlns:xlink="http://www.w3.org/1999/xlink" 
	 viewBox="0 0 496 496" xml:space="preserve">
<polygon style="fill:#C91911;" points="432,288 72.8,288 142.4,0 432,0 "/>
<polygon style="fill:#A50A0A;" points="392,264 119.2,264 172.8,24 392,24 "/>
<polygon style="fill:#D1E9ED;" points="392,280 116,280 170.4,40 392,40 "/>
<polyline style="fill:#B1D9DD;" points="392,40 392,280 120,280 "/>
<polygon style="fill:#E5F7F9;" points="300,40 170.4,40 139.2,180.8 "/>
<g>
	<path style="fill:#97BFC1;" d="M368,184.8c0,4-3.2,7.2-7.2,7.2h-1.6c-4,0-7.2-3.2-7.2-7.2v-33.6c0-4,3.2-7.2,7.2-7.2h1.6
		c4,0,7.2,3.2,7.2,7.2V184.8z"/>
	<path style="fill:#97BFC1;" d="M376.8,144c0,4.8-3.2,8-8,8h-21.6c-4.8,0-8-4-8-8l0,0c0-4,3.2-8,8-8h21.6
		C372.8,136,376.8,140,376.8,144L376.8,144z"/>
</g>
<path style="fill:#C91911;" d="M432,425.6c0,40.8-36,70.4-77.6,70.4H111.2C70.4,496,64,466.4,64,425.6V259.2
	c0-40.8,6.4-75.2,47.2-75.2H384c40.8,0,47.2,34.4,47.2,75.2v166.4H432z"/>
<path style="fill:#A50A0A;" d="M384.8,184c40.8,0,47.2,34.4,47.2,75.2v166.4c0,40.8-36,70.4-77.6,70.4H111.2
	C70.4,496,64,466.4,64,425.6V256"/>
<polygon style="fill:#7A0404;" points="432,304.8 392,264 310.4,264 298.4,276.8 432,408.8 "/>
<path style="fill:#D1E9ED;" d="M392,269.6c0,5.6-4.8,10.4-10.4,10.4h-59.2c-5.6,0-10.4-4.8-10.4-10.4v-3.2c0-5.6,4.8-10.4,10.4-10.4
	h59.2c5.6,0,10.4,4.8,10.4,10.4V269.6z"/>
<circle style="fill:#EFB81D;" cx="313.6" cy="266.4" r="19.2"/>
<path style="fill:#ED8A20;" d="M300,252.8c8-8,20-8,28,0s8,20,0,28"/>
</svg>